<?xml version="1.0" encoding="UTF-8" standalone="no"?>
<!-- Created with Inkscape (http://www.inkscape.org/) -->

<svg
   width="49.585365mm"
   height="56.236969mm"
   viewBox="0 0 49.585365 56.236969"
   version="1.1"
   id="svg1"
   xml:space="preserve"
   sodipodi:docname="iconos pag web.svg"
   inkscape:version="1.4.2 (f4327f4, 2025-05-13)"
   inkscape:export-filename="proyecto\images\actividades.svg"
   inkscape:export-xdpi="96"
   inkscape:export-ydpi="96"
   xmlns:inkscape="http://www.inkscape.org/namespaces/inkscape"
   xmlns:sodipodi="http://sodipodi.sourceforge.net/DTD/sodipodi-0.dtd"
   xmlns:xlink="http://www.w3.org/1999/xlink"
   xmlns="http://www.w3.org/2000/svg"
   xmlns:svg="http://www.w3.org/2000/svg"><sodipodi:namedview
     id="namedview1"
     pagecolor="#ffffff"
     bordercolor="#000000"
     borderopacity="0.25"
     inkscape:showpageshadow="2"
     inkscape:pageopacity="0.0"
     inkscape:pagecheckerboard="0"
     inkscape:deskcolor="#d1d1d1"
     inkscape:document-units="mm"
     inkscape:zoom="1"
     inkscape:cx="183.5"
     inkscape:cy="372.5"
     inkscape:window-width="1920"
     inkscape:window-height="1051"
     inkscape:window-x="-9"
     inkscape:window-y="-9"
     inkscape:window-maximized="1"
     inkscape:current-layer="layer9"
     showguides="false"><inkscape:page
       x="0"
       y="0"
       width="49.585365"
       height="56.236969"
       id="page2"
       margin="0"
       bleed="0" /></sodipodi:namedview><defs
     id="defs1"><inkscape:path-effect
       effect="fillet_chamfer"
       id="path-effect85"
       is_visible="true"
       lpeversion="1"
       nodesatellites_param="F,0,0,1,0,0,0,1 @ F,0,0,1,0,0.77934705,0,1 @ F,0,0,1,0,0,0,1 @ F,0,0,1,0,1.1173766,0,1"
       radius="0"
       unit="px"
       method="auto"
       mode="F"
       chamfer_steps="1"
       flexible="false"
       use_knot_distance="true"
       apply_no_radius="true"
       apply_with_radius="true"
       only_selected="false"
       hide_knots="false" /><inkscape:path-effect
       effect="fillet_chamfer"
       id="path-effect83"
       is_visible="true"
       lpeversion="1"
       nodesatellites_param="F,0,0,1,0,0,0,1 @ F,0,0,1,0,0.77934705,0,1 @ F,0,0,1,0,0,0,1 @ F,0,0,1,0,1.1173766,0,1"
       radius="0"
       unit="px"
       method="auto"
       mode="F"
       chamfer_steps="1"
       flexible="false"
       use_knot_distance="true"
       apply_no_radius="true"
       apply_with_radius="true"
       only_selected="false"
       hide_knots="false" /><inkscape:path-effect
       effect="fillet_chamfer"
       id="path-effect81"
       is_visible="true"
       lpeversion="1"
       nodesatellites_param="F,0,0,1,0,0,0,1 @ F,0,0,1,0,0.77934705,0,1 @ F,0,0,1,0,0,0,1 @ F,0,0,1,0,1.1173766,0,1"
       radius="0"
       unit="px"
       method="auto"
       mode="F"
       chamfer_steps="1"
       flexible="false"
       use_knot_distance="true"
       apply_no_radius="true"
       apply_with_radius="true"
       only_selected="false"
       hide_knots="false" /><inkscape:path-effect
       effect="fillet_chamfer"
       id="path-effect79"
       is_visible="true"
       lpeversion="1"
       nodesatellites_param="F,0,0,1,0,0,0,1 @ F,0,0,1,0,0.77934705,0,1 @ F,0,0,1,0,0,0,1 @ F,0,0,1,0,1.1173766,0,1"
       radius="0"
       unit="px"
       method="auto"
       mode="F"
       chamfer_steps="1"
       flexible="false"
       use_knot_distance="true"
       apply_no_radius="true"
       apply_with_radius="true"
       only_selected="false"
       hide_knots="false" /><inkscape:path-effect
       effect="fillet_chamfer"
       id="path-effect76"
       is_visible="true"
       lpeversion="1"
       nodesatellites_param="F,0,0,1,0,0,0,1 @ F,0,0,1,0,0,0,1 @ F,0,0,1,0,0.3528686,0,1 @ F,0,1,1,0,0.3528686,0,1 @ F,0,0,1,0,0.45436339,0,1"
       radius="0"
       unit="px"
       method="auto"
       mode="F"
       chamfer_steps="1"
       flexible="false"
       use_knot_distance="true"
       apply_no_radius="true"
       apply_with_radius="true"
       only_selected="false"
       hide_knots="false" /><inkscape:path-effect
       effect="fillet_chamfer"
       id="path-effect74"
       is_visible="true"
       lpeversion="1"
       nodesatellites_param="F,0,1,1,0,0.7086342,0,1 @ F,0,0,1,0,0.57022625,0,1 @ F,0,0,1,0,0.7086342,0,1 @ F,0,0,1,0,1.385973,0,1 @ F,0,0,1,0,1.3460264,0,1"
       radius="0"
       unit="px"
       method="auto"
       mode="F"
       chamfer_steps="1"
       flexible="false"
       use_knot_distance="true"
       apply_no_radius="true"
       apply_with_radius="true"
       only_selected="false"
       hide_knots="false" /><linearGradient
       id="linearGradient20"
       inkscape:collect="always"><stop
         style="stop-color:#2200e5;stop-opacity:1;"
         offset="0"
         id="stop20" /><stop
         style="stop-color:#8d00fb;stop-opacity:1;"
         offset="0.5"
         id="stop22" /><stop
         style="stop-color:#c71585;stop-opacity:1;"
         offset="1"
         id="stop21" /></linearGradient><linearGradient
       inkscape:collect="always"
       xlink:href="#linearGradient20"
       id="linearGradient90"
       x1="11.65062"
       y1="134.4706"
       x2="52.19297"
       y2="134.4706"
       gradientUnits="userSpaceOnUse"
       gradientTransform="translate(2.9617573,125.70201)" /></defs><g
     inkscape:groupmode="layer"
     id="layer9"
     inkscape:label="servicios"
     transform="translate(-2.9617573,-125.70201)"><g
       id="g6"><path
         style="fill:none;fill-opacity:1;stroke:#000000;stroke-width:1.113;stroke-linecap:round;stroke-dasharray:none;stroke-opacity:1"
         d="m 51.990624,133.08541 -0.120292,44.97623 c -0.973024,2.91182 -2.295335,3.3116 -5.752976,3.27405 l -29.79387,0.0467 c -4.953529,-0.80787 -3.973072,-3.33346 -4.490128,-5.42557 l 0.140317,-41.76754 c 0.374865,-3.99973 2.458135,-4.21655 4.5369,-4.44336 l 30.916402,-0.0468 c 2.049587,-0.22153 3.635809,0.7411 4.563647,3.38626 z"
         id="path67"
         sodipodi:nodetypes="ccccccccc" /><path
         style="fill:url(#linearGradient90);fill-opacity:0.858131;stroke:#000000;stroke-width:1.113;stroke-linecap:round;stroke-dasharray:none;stroke-opacity:1"
         d="m 12.254308,139.00688 39.382164,0.0935 v -5.89329 c -0.572342,-1.62123 -1.036027,-3.32094 -3.788545,-3.3676 h -31.524441 -0.04677 c -2.28118,0.09 -3.658836,1.20406 -4.069179,3.41437 z"
         id="path68"
         sodipodi:nodetypes="cccccccc" /><path
         style="fill:none;fill-opacity:1;stroke:#000000;stroke-width:1.113;stroke-linecap:round;stroke-dasharray:none;stroke-opacity:1"
         d="m 17.539563,144.71308 28.905199,0.0936"
         id="path69" /><path
         style="fill:none;fill-opacity:1;stroke:#000000;stroke-width:1.113;stroke-linecap:round;stroke-dasharray:none;stroke-opacity:1"
         d="m 17.91374,150.04511 28.484249,0.0468"
         id="path70" /><path
         style="fill:none;fill-opacity:1;stroke:#000000;stroke-width:1.113;stroke-linecap:round;stroke-dasharray:none;stroke-opacity:1"
         d="m 17.726651,155.56423 28.297162,-0.0468"
         id="path71" /><path
         style="fill:none;fill-opacity:1;stroke:#000000;stroke-width:1.113;stroke-linecap:round;stroke-dasharray:none;stroke-opacity:1"
         d="m 17.820196,160.84948 28.343933,0.0468"
         id="path72" /><path
         style="fill:none;fill-opacity:1;stroke:#000000;stroke-width:1.113;stroke-linecap:round;stroke-dasharray:none;stroke-opacity:1"
         d="m 27.314945,166.41537 18.708868,0.0468"
         id="path73" /><path
         style="fill:#ffb523;fill-opacity:1;stroke:#000000;stroke-width:1.113;stroke-linecap:round;stroke-dasharray:none;stroke-opacity:1"
         d="m 6.5901814,160.37848 12.9914616,13.85285 a 0.5211934,0.5211934 179.26557 0 0 0.769354,-0.01 l 4.107225,-4.61094 a 0.7649741,0.7649741 88.882745 0 0 -0.02027,-1.03952 L 8.7256994,152.25939 a 1.309886,1.309886 179.45558 0 0 -1.9038975,0.0181 l -2.9131669,3.14165 a 1.4729164,1.4729164 90.416246 0 0 -0.014437,1.98719 l 1.7370039,1.92871 a 70.262075,70.262075 47.415739 0 0 0.9589795,1.04345 z"
         id="path74"
         inkscape:path-effect="#path-effect74"
         inkscape:original-d="m 6.1054297,159.86159 13.8662853,14.78568 4.95785,-5.56589 -17.1653854,-17.82019 -4.7707611,5.14494 z"
         sodipodi:nodetypes="cccccc" /><path
         style="fill:#865900;fill-opacity:1;stroke:#000000;stroke-width:1.113;stroke-linecap:round;stroke-linejoin:round;stroke-dasharray:none;stroke-opacity:1"
         d="m 19.905762,174.39762 4.535123,-0.20257 c 0.625537,0.63086 1.190625,1.08038 1.785937,1.62057 l -1.293512,-1.96333 c 0.04555,-3.42219 -0.255405,-3.34625 -0.277455,-5.01092 z"
         id="path75"
         sodipodi:nodetypes="cccccc" /><path
         style="fill:#ff0170;fill-opacity:1;stroke:#000000;stroke-width:1.113;stroke-linecap:round;stroke-linejoin:round;stroke-dasharray:none;stroke-opacity:1"
         d="m 6.6145832,160.23828 4.5309898,-4.89479 -2.708893,-3.0437 a 0.86595796,0.86595796 26.160531 0 0 -0.5866101,-0.28814 l -0.00704,-5e-4 a 0.71717673,0.71717673 157.79184 0 0 -0.5862622,0.23935 l -3.3832663,3.81153 a 0.54137687,0.54137687 91.587666 0 0 -0.019286,0.6958 z"
         id="path76"
         inkscape:path-effect="#path-effect76"
         inkscape:original-d="M 6.6145832,160.23828 11.145573,155.34349 8.2020832,152.0362 7.4910155,151.9866 3.571875,156.40184 Z"
         sodipodi:nodetypes="cccccc" /><path
         style="fill:none;fill-opacity:1;stroke:#000000;stroke-width:1.113;stroke-linecap:round;stroke-linejoin:round;stroke-dasharray:none;stroke-opacity:1"
         d="M 9.4479776,158.04315 22.310323,171.70062"
         id="path77" /><path
         style="fill:#ffb523;fill-opacity:1;stroke:#000000;stroke-width:1.11352;stroke-linecap:round;stroke-linejoin:round;stroke-dasharray:none;stroke-opacity:1"
         id="path78"
         inkscape:path-effect="#path-effect79"
         sodipodi:type="arc"
         sodipodi:cx="19.016928"
         sodipodi:cy="130.04271"
         sodipodi:rx="2.0171878"
         sodipodi:ry="3.8361983"
         d="m 21.034116,130.04271 c 0,1.6342 -0.537319,3.02974 -1.294304,3.58252 -0.341701,0.24952 -1.104159,0.24951 -1.445906,-1.1e-4 -0.756913,-0.55284 -1.294166,-1.94831 -1.294166,-3.58241 0,-1.44573 0.420525,-2.70467 1.041643,-3.35856 0.413148,-0.43494 1.538032,-0.43492 1.951207,1.3e-4 0.621053,0.65392 1.041526,1.91279 1.041526,3.35843 z" /><path
         style="fill:#ffb523;fill-opacity:1;stroke:#000000;stroke-width:1.11352;stroke-linecap:round;stroke-linejoin:round;stroke-dasharray:none;stroke-opacity:1"
         id="path81"
         inkscape:path-effect="#path-effect83"
         sodipodi:type="arc"
         sodipodi:cx="19.016928"
         sodipodi:cy="130.04271"
         sodipodi:rx="2.0171878"
         sodipodi:ry="3.8361983"
         d="m 21.034116,130.04271 c 0,1.6342 -0.537319,3.02974 -1.294304,3.58252 -0.341701,0.24952 -1.104159,0.24951 -1.445906,-1.1e-4 -0.756913,-0.55284 -1.294166,-1.94831 -1.294166,-3.58241 0,-1.44573 0.420525,-2.70467 1.041643,-3.35856 0.413148,-0.43494 1.538032,-0.43492 1.951207,1.3e-4 0.621053,0.65392 1.041526,1.91279 1.041526,3.35843 z"
         transform="translate(17.264062,-0.09921875)" /><path
         style="fill:#ffb523;fill-opacity:1;stroke:#000000;stroke-width:1.11352;stroke-linecap:round;stroke-linejoin:round;stroke-dasharray:none;stroke-opacity:1"
         id="path79"
         inkscape:path-effect="#path-effect81"
         sodipodi:type="arc"
         sodipodi:cx="19.016928"
         sodipodi:cy="130.04271"
         sodipodi:rx="2.0171878"
         sodipodi:ry="3.8361983"
         d="m 21.034116,130.04271 c 0,1.6342 -0.537319,3.02974 -1.294304,3.58252 -0.341701,0.24952 -1.104159,0.24951 -1.445906,-1.1e-4 -0.756913,-0.55284 -1.294166,-1.94831 -1.294166,-3.58241 0,-1.44573 0.420525,-2.70467 1.041643,-3.35856 0.413148,-0.43494 1.538032,-0.43492 1.951207,1.3e-4 0.621053,0.65392 1.041526,1.91279 1.041526,3.35843 z"
         transform="translate(8.6651042,-0.06614583)" /><path
         style="fill:#ffb523;fill-opacity:1;stroke:#000000;stroke-width:1.11352;stroke-linecap:round;stroke-linejoin:round;stroke-dasharray:none;stroke-opacity:1"
         id="path83"
         inkscape:path-effect="#path-effect85"
         sodipodi:type="arc"
         sodipodi:cx="19.016928"
         sodipodi:cy="130.04271"
         sodipodi:rx="2.0171878"
         sodipodi:ry="3.8361983"
         d="m 21.034116,130.04271 c 0,1.6342 -0.537319,3.02974 -1.294304,3.58252 -0.341701,0.24952 -1.104159,0.24951 -1.445906,-1.1e-4 -0.756913,-0.55284 -1.294166,-1.94831 -1.294166,-3.58241 0,-1.44573 0.420525,-2.70467 1.041643,-3.35856 0.413148,-0.43494 1.538032,-0.43492 1.951207,1.3e-4 0.621053,0.65392 1.041526,1.91279 1.041526,3.35843 z"
         transform="translate(25.86302,-0.06614583)" /></g></g></svg>
