<?xml version="1.0" encoding="UTF-8" standalone="no"?>
<!-- Created with Inkscape (http://www.inkscape.org/) -->

<svg
   width="37.549217mm"
   height="39.574024mm"
   viewBox="0 0 37.549217 39.574024"
   version="1.1"
   id="svg1"
   xml:space="preserve"
   sodipodi:docname="iconos pag web.svg"
   inkscape:version="1.4.2 (f4327f4, 2025-05-13)"
   inkscape:export-filename="proyecto\images\actividades.svg"
   inkscape:export-xdpi="96"
   inkscape:export-ydpi="96"
   xmlns:inkscape="http://www.inkscape.org/namespaces/inkscape"
   xmlns:sodipodi="http://sodipodi.sourceforge.net/DTD/sodipodi-0.dtd"
   xmlns:xlink="http://www.w3.org/1999/xlink"
   xmlns="http://www.w3.org/2000/svg"
   xmlns:svg="http://www.w3.org/2000/svg"><sodipodi:namedview
     id="namedview1"
     pagecolor="#ffffff"
     bordercolor="#000000"
     borderopacity="0.25"
     inkscape:showpageshadow="2"
     inkscape:pageopacity="0.0"
     inkscape:pagecheckerboard="0"
     inkscape:deskcolor="#d1d1d1"
     inkscape:document-units="mm"
     inkscape:zoom="1"
     inkscape:cx="183.5"
     inkscape:cy="372.5"
     inkscape:window-width="1920"
     inkscape:window-height="1051"
     inkscape:window-x="-9"
     inkscape:window-y="-9"
     inkscape:window-maximized="1"
     inkscape:current-layer="layer9"
     showguides="false"><inkscape:page
       x="0"
       y="0"
       width="37.549217"
       height="39.574024"
       id="page2"
       margin="0"
       bleed="0" /></sodipodi:namedview><defs
     id="defs1"><inkscape:path-effect
       effect="fillet_chamfer"
       id="path-effect51"
       is_visible="true"
       lpeversion="1"
       nodesatellites_param="F,0,0,1,0,1.0923215,0,1 @ F,0,0,1,0,1.1159405,0,1 @ F,0,0,1,0,0.77645916,0,1 @ F,0,0,1,0,0.85692582,0,1 @ F,0,0,1,0,1.4257628,0,1 @ F,0,0,1,0,2.4640492,0,1 @ F,0,0,1,0,1.1159819,0,1 @ F,0,0,1,0,0.63495261,0,1 @ F,0,0,1,0,0.95977446,0,1 @ F,0,0,1,0,0.71805735,0,1 @ F,0,0,1,0,1.0216182,0,1 @ F,0,0,1,0,1.0541224,0,1 @ F,0,0,1,0,0.99224064,0,1 @ F,0,0,1,0,0.66800097,0,1"
       radius="0"
       unit="px"
       method="auto"
       mode="F"
       chamfer_steps="1"
       flexible="false"
       use_knot_distance="true"
       apply_no_radius="true"
       apply_with_radius="true"
       only_selected="false"
       hide_knots="false" /><linearGradient
       id="linearGradient20"
       inkscape:collect="always"><stop
         style="stop-color:#2200e5;stop-opacity:1;"
         offset="0"
         id="stop20" /><stop
         style="stop-color:#8d00fb;stop-opacity:1;"
         offset="0.5"
         id="stop22" /><stop
         style="stop-color:#c71585;stop-opacity:1;"
         offset="1"
         id="stop21" /></linearGradient><linearGradient
       inkscape:collect="always"
       xlink:href="#linearGradient20"
       id="linearGradient58"
       x1="131.38905"
       y1="29.049772"
       x2="166.23877"
       y2="29.049772"
       gradientUnits="userSpaceOnUse"
       gradientTransform="translate(131.38906,7.1419171)" /></defs><g
     inkscape:groupmode="layer"
     id="layer5"
     inkscape:label="contacto"
     transform="translate(-131.38906,-7.1419171)"><g
       id="g8"><g
         id="g4"
         inkscape:export-filename="proyecto\images\contacto.svg"
         inkscape:export-xdpi="96"
         inkscape:export-ydpi="96"><path
           style="fill:url(#linearGradient58);fill-opacity:1;stroke:#000000;stroke-width:1.062;stroke-linecap:round;stroke-dasharray:none;stroke-opacity:1"
           d="m 145.31423,23.515441 c 1.07641,-0.400571 1.82755,-1.068328 1.89375,-2.298713 0.033,-0.613731 -0.32772,-1.552974 -0.61858,-2.096336 -0.87952,-1.643031 -2.00735,-3.397072 -5.48736,-6.202675 -0.33377,-0.26909 -0.91374,-0.654159 -1.31898,-0.793033 -1.01478,-0.34775 -1.98763,-0.26585 -2.92331,0.19719 -0.42369,0.209671 -1.01551,0.702358 -1.36568,1.020723 l -1.39246,1.265954 c -0.58263,0.529699 -1.27141,1.560335 -1.489,2.316992 -0.89117,3.09893 -1.03868,6.110177 0.23543,8.990071 0.54959,1.242257 1.99549,2.924188 2.94331,3.900696 4.2591,4.388011 7.8728,8.023052 11.8091,12.034459 0.43162,0.439858 1.18943,1.086188 1.6543,1.489842 1.74614,1.516183 5.01614,4.35116 11.94381,1.861734 0.32988,-0.118538 0.78911,-0.430074 1.0296,-0.685291 l 2.14748,-2.278957 c 0.36352,-0.385779 0.91521,-1.051319 1.11017,-1.543151 0.48925,-1.234224 0.1328,-2.26946 -0.45785,-3.24959 -0.20465,-0.339603 -0.59947,-0.846865 -0.86143,-1.144594 -1.50746,-1.713283 -3.14612,-3.328165 -5.09845,-4.707795 -0.46072,-0.325566 -1.27891,-0.734735 -1.83473,-0.828023 -1.50796,-0.253089 -2.54213,0.304509 -3.05754,1.749759 -0.19525,0.547483 -0.56525,1.389158 -1.05009,1.708983 -0.95701,0.631284 -1.85356,0.525103 -2.72335,0.09233 -0.49013,-0.243865 -1.16967,-0.820804 -1.58522,-1.17796 -1.51647,-1.303355 -3.03295,-2.349274 -4.54942,-4.847781 -0.19065,-0.314115 -0.50803,-0.821272 -0.66696,-1.153868 -0.48566,-1.01631 -0.28162,-1.741416 0.0836,-2.398489 0.29297,-0.527165 1.06501,-1.01226 1.62991,-1.222481 z"
           id="path51"
           sodipodi:nodetypes="ccccccccccccccc"
           inkscape:path-effect="#path-effect51"
           inkscape:original-d="m 144.26406,23.8125 c 1.9427,-0.417717 3.35229,-1.273351 2.84427,-3.704167 -1.08781,-2.058252 -1.89745,-3.992144 -6.61458,-7.672916 -1.54602,-0.820578 -2.99596,-0.656347 -4.36563,0.330729 l -3.08146,2.801511 c -1.52494,4.357165 -1.79472,8.556072 1.03094,12.478176 5.32157,5.513047 9.53603,9.734462 14.30404,14.601693 1.50426,0.901614 4.66463,5.757251 13.41107,2.33164 l 3.24114,-3.439583 c 1.27082,-1.895594 0.54666,-3.321782 -0.39687,-4.696354 -1.84693,-2.159119 -3.8679,-4.187704 -6.41615,-5.820834 -2.40407,-0.823489 -3.8796,-0.05814 -4.29948,2.513542 -1.58737,1.700641 -2.99664,1.228357 -4.36562,0.264583 -1.87413,-1.769756 -3.74827,-2.722308 -5.6224,-6.085416 -1.24767,-1.874209 -0.33018,-2.834238 0.33073,-3.902604 z" /><path
           style="fill:none;fill-opacity:1;stroke:#000000;stroke-width:1.062;stroke-linecap:round;stroke-dasharray:none;stroke-opacity:1"
           d="m 133.96185,14.882812 c 6.45243,1.720502 7.76955,5.562111 10.4345,8.847005"
           id="path52"
           sodipodi:nodetypes="cc" /><path
           style="fill:none;fill-opacity:1;stroke:#000000;stroke-width:1.04587;stroke-linecap:round;stroke-dasharray:none;stroke-opacity:1"
           d="m 153.74792,33.577483 c 5.11162,2.847287 7.47622,6.523853 9.01196,10.450632"
           id="path53"
           sodipodi:nodetypes="cc" /><path
           style="fill:none;fill-opacity:1;stroke:#000000;stroke-width:1.062;stroke-linecap:round;stroke-dasharray:none;stroke-opacity:1"
           d="m 150.21719,16.536458 c 4.99831,0.65208 9.14887,2.562426 9.69036,9.855729"
           id="path54"
           sodipodi:nodetypes="cc" /><path
           style="fill:none;fill-opacity:1;stroke:#000000;stroke-width:1.062;stroke-linecap:round;stroke-dasharray:none;stroke-opacity:1"
           d="m 150.25026,12.203906 c 8.88372,0.8829 13.0727,5.955728 13.75833,14.155208"
           id="path55"
           sodipodi:nodetypes="cc" /><path
           style="fill:none;fill-opacity:1;stroke:#000000;stroke-width:1.062;stroke-linecap:round;stroke-dasharray:none;stroke-opacity:1"
           d="M 150.15104,7.6729166 C 165.28973,9.4917885 166.87467,17.830188 168.40729,26.19375"
           id="path56"
           sodipodi:nodetypes="cc" /></g></g></g></svg>
